<?xml version="1.0" standalone="no"?>
<!DOCTYPE svg PUBLIC "-//W3C//DTD SVG 20010904//EN"
 "http://www.w3.org/TR/2001/REC-SVG-20010904/DTD/svg10.dtd">
<svg version="1.0" xmlns="http://www.w3.org/2000/svg"
 width="576.000000pt" height="576.000000pt" viewBox="0 0 576.000000 576.000000"
 preserveAspectRatio="xMidYMid meet">
<metadata>
Created by potrace 1.14, written by Peter Selinger 2001-2017
</metadata>
<g transform="translate(0.000000,576.000000) scale(0.100000,-0.100000)"
fill="#000000" stroke="none">
<path d="M1635 5432 c-49 -5 -137 -31 -185 -55 -96 -47 -209 -186 -257 -318
-55 -148 -76 -283 -76 -494 1 -239 22 -404 90 -701 4 -20 -3 -24 -69 -44 -88
-27 -226 -77 -250 -90 -10 -6 -23 -10 -29 -10 -6 0 -45 -16 -86 -35 -41 -19
-77 -35 -79 -35 -10 0 -216 -118 -271 -155 -229 -156 -374 -338 -412 -513 -54
-257 114 -531 467 -759 106 -68 308 -172 403 -207 41 -15 83 -32 94 -37 11 -5
67 -25 125 -44 58 -19 104 -38 103 -42 0 -4 -11 -55 -22 -113 -28 -138 -28
-138 -35 -190 -3 -25 -8 -55 -10 -67 -26 -130 -26 -489 -1 -609 3 -12 7 -38
11 -58 3 -21 12 -55 19 -77 8 -21 12 -39 10 -39 -8 0 67 -154 96 -196 119
-174 296 -247 536 -220 284 31 713 266 1021 560 30 28 57 51 62 51 4 0 41 -30
81 -67 41 -36 94 -83 119 -103 25 -21 47 -41 48 -46 2 -5 10 -9 17 -9 7 0 15
-4 17 -8 2 -4 48 -40 103 -78 283 -200 534 -302 755 -308 230 -6 399 101 509
321 28 57 75 201 86 262 6 36 15 106 21 149 5 44 5 334 0 377 -3 27 -6 52 -21
180 -5 42 -19 122 -29 165 -3 14 -10 45 -15 70 -5 25 -11 52 -13 59 -2 8 46
30 137 62 77 27 149 53 160 58 11 5 63 28 115 51 131 58 359 186 390 220 3 3
23 18 45 34 46 34 89 73 145 131 183 191 239 395 165 605 -27 76 -66 134 -160
237 -138 151 -408 321 -670 423 -11 4 -33 13 -50 20 -16 7 -84 30 -150 52 -66
21 -125 41 -132 43 -8 3 -6 26 7 87 20 94 24 115 44 248 85 563 -20 1017 -274
1187 -82 54 -153 75 -275 79 -95 3 -125 -1 -220 -25 -105 -28 -230 -76 -305
-118 -120 -67 -194 -110 -214 -126 -6 -4 -47 -34 -91 -65 -93 -67 -205 -161
-287 -238 -32 -30 -62 -54 -66 -54 -4 0 -26 17 -48 38 -32 31 -93 85 -189 164
-40 34 -129 98 -134 98 -4 0 -17 9 -29 20 -30 28 -193 126 -286 171 -86 43
-257 103 -321 114 -22 4 -51 9 -65 12 -33 6 -138 9 -175 5z m2510 -252 c101
-28 187 -157 222 -330 27 -135 37 -413 19 -525 -4 -22 -9 -65 -12 -94 -3 -30
-7 -57 -9 -60 -2 -4 -6 -28 -10 -56 -3 -27 -14 -86 -23 -130 -19 -87 -14 -83
-91 -70 -18 3 -36 7 -40 9 -3 3 -27 7 -51 11 -25 3 -52 8 -61 11 -10 3 -30 6
-45 9 -27 3 -184 27 -264 40 -19 3 -62 8 -95 11 -33 3 -69 7 -80 9 -11 2 -32
4 -47 4 -16 1 -28 6 -28 11 0 14 -266 368 -300 400 -3 3 -30 34 -60 70 -30 36
-67 78 -82 93 -16 16 -28 31 -28 34 0 7 68 71 134 127 27 22 54 46 60 51 27
26 178 136 246 180 126 82 315 170 411 191 102 22 165 23 234 4z m-2281 -15
c84 -22 199 -70 286 -117 78 -43 205 -124 228 -145 7 -7 17 -13 20 -13 4 0 18
-10 32 -23 14 -12 34 -29 46 -37 34 -24 113 -91 176 -149 56 -52 58 -55 41
-71 -10 -10 -25 -26 -34 -36 -8 -11 -46 -55 -85 -100 -38 -44 -84 -98 -102
-120 -19 -21 -84 -105 -145 -186 -60 -82 -117 -148 -126 -149 -46 -2 -155 -15
-255 -30 -39 -6 -87 -12 -106 -15 -19 -3 -46 -7 -60 -10 -14 -3 -32 -6 -40 -6
-8 0 -34 -4 -58 -9 -23 -5 -59 -12 -80 -15 -34 -5 -92 -18 -133 -30 -13 -4
-20 9 -33 63 -21 88 -24 100 -41 213 -26 166 -29 201 -29 370 -1 214 7 277 49
399 42 125 102 195 192 226 48 17 177 12 257 -10z m1131 -840 c55 -64 71 -83
155 -189 8 -10 28 -34 44 -52 18 -22 23 -34 15 -34 -109 -4 -659 -3 -659 1 0
13 212 270 289 352 l45 47 36 -39 c19 -22 53 -60 75 -86z m265 -530 c58 -5
113 -8 122 -7 20 1 58 -50 160 -213 114 -184 212 -354 305 -532 l84 -162 -38
-78 c-20 -43 -41 -79 -45 -81 -4 -2 -8 -9 -8 -15 0 -33 -402 -715 -432 -733
-37 -23 -1032 -26 -1052 -3 -1 2 -26 38 -53 79 -157 236 -263 417 -398 682
l-75 146 69 134 c38 74 74 143 79 154 136 242 298 509 360 591 13 17 31 32 40
31 35 0 276 12 278 15 6 5 508 -1 604 -8z m-1225 -53 c-5 -4 -15 -16 -22 -27
-6 -11 -52 -87 -101 -170 -103 -174 -188 -326 -198 -357 -6 -20 -8 -20 -24 13
-23 44 -107 260 -116 296 -4 15 -10 33 -14 38 -9 11 -41 128 -37 132 2 1 19 4
37 7 19 2 55 9 80 15 61 14 109 22 147 26 18 2 36 6 40 8 4 3 37 8 73 12 36 4
67 9 69 11 2 2 20 4 40 4 20 0 32 -4 26 -8z m1821 -7 c54 -8 110 -17 124 -20
177 -33 246 -49 253 -55 13 -12 -74 -271 -147 -434 l-26 -59 -41 79 c-22 43
-50 91 -60 106 -11 15 -18 28 -14 28 3 0 -8 20 -25 44 -16 25 -30 47 -30 51 0
5 -34 63 -77 131 -7 10 -22 35 -32 55 -11 19 -27 41 -35 48 -19 16 -21 41 -3
41 8 0 58 -7 113 -15z m-2559 -185 c12 -46 67 -210 83 -245 5 -11 25 -63 46
-115 20 -52 44 -113 54 -135 10 -22 32 -72 49 -111 l31 -71 -30 -61 c-42 -88
-171 -418 -216 -552 -20 -63 -39 -117 -40 -119 -4 -5 -268 87 -333 116 -237
106 -407 212 -524 326 -81 80 -144 168 -154 217 -3 17 -9 32 -13 35 -6 4 -5
52 4 107 9 56 72 147 160 231 57 54 200 158 256 185 14 7 50 26 80 42 121 66
473 201 515 197 15 -2 23 -14 32 -47z m3268 25 c33 -10 65 -19 70 -21 6 -1 52
-18 104 -38 439 -169 715 -380 768 -586 11 -44 9 -72 -12 -133 -73 -214 -420
-451 -898 -613 l-98 -33 -10 27 c-6 15 -22 61 -35 102 -14 41 -32 89 -40 107
-8 17 -14 34 -14 37 0 9 -115 285 -156 372 -38 83 -38 96 -3 168 11 23 36 79
55 126 19 47 41 99 48 115 7 17 19 46 26 65 6 19 16 44 20 55 22 54 51 137 71
201 12 40 27 71 33 70 6 -1 38 -11 71 -21z m-456 -1085 c56 -128 152 -400 143
-401 -4 0 -14 -2 -22 -4 -100 -23 -172 -37 -255 -50 -22 -3 -62 -10 -90 -15
-101 -19 -155 -20 -155 -5 0 7 4 17 10 20 5 3 29 38 52 78 24 40 47 80 53 89
35 59 176 311 195 348 l23 45 13 -30 c7 -17 22 -50 33 -75z m-2359 5 c24 -44
53 -98 65 -120 37 -67 157 -268 185 -310 28 -42 45 -79 32 -72 -4 3 -35 8 -70
11 -34 3 -106 13 -160 22 -53 9 -110 18 -127 21 -121 20 -150 29 -150 48 2 50
167 498 179 483 2 -1 22 -39 46 -83z m2590 -707 c7 -35 14 -72 16 -83 21 -95
35 -192 39 -256 1 -19 4 -39 6 -45 7 -13 3 -309 -5 -364 -8 -57 -15 -97 -23
-135 -4 -16 -7 -32 -8 -35 -13 -64 -75 -187 -117 -230 -62 -64 -88 -73 -208
-73 -109 0 -210 27 -355 98 -100 48 -321 187 -370 232 -11 10 -33 29 -50 41
-30 23 -66 55 -156 138 l-46 42 85 98 c133 156 223 271 327 418 37 53 73 96
79 97 6 0 18 2 26 3 8 2 47 6 85 10 39 3 81 8 95 10 14 3 48 7 75 10 28 3 61
8 75 11 14 2 41 7 60 9 19 3 73 12 120 21 47 8 99 18 115 20 17 3 44 10 60 14
58 18 62 15 75 -51z m-2817 38 c15 -3 35 -7 45 -10 9 -3 35 -7 57 -11 22 -3
78 -12 125 -20 96 -15 157 -24 215 -30 22 -2 63 -7 90 -10 28 -3 77 -8 109
-10 41 -4 63 -11 72 -23 40 -57 117 -161 138 -187 79 -98 223 -273 250 -303
17 -19 45 -50 63 -70 31 -34 32 -36 14 -51 -21 -18 -148 -131 -165 -146 -6 -5
-34 -27 -61 -47 -28 -21 -54 -41 -60 -45 -29 -23 -116 -83 -120 -83 -2 0 -21
-12 -42 -26 -57 -39 -228 -119 -316 -149 -94 -31 -139 -38 -238 -38 -64 0 -84
5 -127 28 -57 31 -99 78 -135 153 -28 57 -32 71 -58 197 -18 85 -25 302 -13
410 3 28 7 66 9 85 6 67 17 135 31 205 8 39 16 79 18 90 6 39 18 90 23 98 2 4
14 5 26 2 12 -3 34 -7 50 -9z m1687 -135 c-10 -20 -63 -89 -90 -118 -11 -12
-20 -27 -20 -32 0 -5 -3 -11 -7 -13 -5 -1 -39 -41 -78 -88 -38 -46 -82 -98
-98 -114 l-27 -31 -28 30 c-109 120 -312 366 -312 377 0 2 150 3 334 4 299 0
334 -2 326 -15z"/>
<path d="M2770 3383 c-75 -18 -70 -17 -115 -38 -130 -61 -234 -188 -270 -330
-47 -189 -1 -359 136 -496 38 -38 76 -69 84 -69 8 0 15 -3 15 -8 0 -23 156
-69 246 -71 94 -3 156 11 238 51 143 70 248 204 282 363 10 42 6 166 -6 217
-13 56 -59 154 -88 189 -31 38 -116 119 -125 119 -5 0 -21 9 -36 19 -77 55
-251 81 -361 54z"/>
</g>
</svg>
